<mxfile host="app.diagrams.net" modified="2024-02-03T02:37:43.272Z" agent="Mozilla/5.0 (Macintosh; Intel Mac OS X 10_15_7) AppleWebKit/537.36 (KHTML, like Gecko) Chrome/120.0.0.0 Safari/537.36" etag="I7G9WhDOwPJV8FxbYb0I" version="23.1.1" type="github">
  <diagram name="Page-1" id="03018318-947c-dd8e-b7a3-06fadd420f32">
    <mxGraphModel dx="780" dy="1363" grid="1" gridSize="10" guides="1" tooltips="1" connect="1" arrows="1" fold="1" page="1" pageScale="1" pageWidth="1100" pageHeight="850" background="#ffffff" math="0" shadow="0">
      <root>
        <mxCell id="0" />
        <mxCell id="1" parent="0" />
        <mxCell id="d_EyPhG1koHHxLtSO-FC-1" value="" style="rounded=0;whiteSpace=wrap;html=1;" vertex="1" parent="1">
          <mxGeometry x="140" y="680" width="690" height="390" as="geometry" />
        </mxCell>
        <mxCell id="d_EyPhG1koHHxLtSO-FC-2" value="市场" style="rounded=0;whiteSpace=wrap;html=1;" vertex="1" parent="1">
          <mxGeometry x="170" y="700" width="130" height="40" as="geometry" />
        </mxCell>
        <mxCell id="d_EyPhG1koHHxLtSO-FC-3" value="本地" style="rounded=0;whiteSpace=wrap;html=1;" vertex="1" parent="1">
          <mxGeometry x="310" y="700" width="130" height="40" as="geometry" />
        </mxCell>
        <mxCell id="d_EyPhG1koHHxLtSO-FC-4" value="设置" style="rounded=0;whiteSpace=wrap;html=1;" vertex="1" parent="1">
          <mxGeometry x="450" y="700" width="140" height="40" as="geometry" />
        </mxCell>
        <mxCell id="d_EyPhG1koHHxLtSO-FC-6" value="头像" style="ellipse;whiteSpace=wrap;html=1;aspect=fixed;" vertex="1" parent="1">
          <mxGeometry x="760" y="700" width="40" height="40" as="geometry" />
        </mxCell>
        <mxCell id="d_EyPhG1koHHxLtSO-FC-7" value="搜一搜" style="rounded=0;whiteSpace=wrap;html=1;" vertex="1" parent="1">
          <mxGeometry x="170" y="-180" width="550" height="50" as="geometry" />
        </mxCell>
        <mxCell id="d_EyPhG1koHHxLtSO-FC-8" value="" style="rounded=0;whiteSpace=wrap;html=1;" vertex="1" parent="1">
          <mxGeometry x="140" y="630" width="690" height="50" as="geometry" />
        </mxCell>
        <mxCell id="d_EyPhG1koHHxLtSO-FC-9" value="红绿灯" style="rounded=0;whiteSpace=wrap;html=1;" vertex="1" parent="1">
          <mxGeometry x="170" y="640" width="130" height="30" as="geometry" />
        </mxCell>
        <mxCell id="d_EyPhG1koHHxLtSO-FC-10" value="钉住" style="rounded=0;whiteSpace=wrap;html=1;" vertex="1" parent="1">
          <mxGeometry x="770" y="640" width="30" height="30" as="geometry" />
        </mxCell>
        <mxCell id="d_EyPhG1koHHxLtSO-FC-11" value="" style="rounded=0;whiteSpace=wrap;html=1;" vertex="1" parent="1">
          <mxGeometry x="170" y="-120" width="550" height="190" as="geometry" />
        </mxCell>
        <mxCell id="d_EyPhG1koHHxLtSO-FC-12" value="" style="rounded=0;whiteSpace=wrap;html=1;" vertex="1" parent="1">
          <mxGeometry x="140" y="508" width="700" height="40" as="geometry" />
        </mxCell>
        <mxCell id="d_EyPhG1koHHxLtSO-FC-13" value="工具栏" style="text;html=1;align=center;verticalAlign=middle;resizable=0;points=[];autosize=1;strokeColor=none;fillColor=none;" vertex="1" parent="1">
          <mxGeometry x="140" y="470" width="60" height="30" as="geometry" />
        </mxCell>
        <mxCell id="d_EyPhG1koHHxLtSO-FC-14" value="主窗口" style="text;html=1;align=center;verticalAlign=middle;resizable=0;points=[];autosize=1;strokeColor=none;fillColor=none;" vertex="1" parent="1">
          <mxGeometry x="140" y="588" width="60" height="30" as="geometry" />
        </mxCell>
        <mxCell id="d_EyPhG1koHHxLtSO-FC-15" value="全局搜索" style="text;html=1;align=center;verticalAlign=middle;resizable=0;points=[];autosize=1;strokeColor=none;fillColor=none;" vertex="1" parent="1">
          <mxGeometry x="125" y="-242" width="70" height="30" as="geometry" />
        </mxCell>
        <mxCell id="d_EyPhG1koHHxLtSO-FC-17" value="" style="dashed=0;outlineConnect=0;html=1;align=center;labelPosition=center;verticalLabelPosition=bottom;verticalAlign=top;shape=mxgraph.weblogos.apple;fillColor=#1B1C1C;strokeColor=none" vertex="1" parent="1">
          <mxGeometry x="158.8" y="521.16" width="11.2" height="13.68" as="geometry" />
        </mxCell>
        <mxCell id="d_EyPhG1koHHxLtSO-FC-18" value="plugin-box" style="text;html=1;align=center;verticalAlign=middle;resizable=0;points=[];autosize=1;strokeColor=none;fillColor=none;" vertex="1" parent="1">
          <mxGeometry x="180" y="513" width="80" height="30" as="geometry" />
        </mxCell>
        <mxCell id="d_EyPhG1koHHxLtSO-FC-19" value="全局菜单" style="text;html=1;align=center;verticalAlign=middle;resizable=0;points=[];autosize=1;strokeColor=none;fillColor=none;" vertex="1" parent="1">
          <mxGeometry x="129.4" y="340" width="70" height="30" as="geometry" />
        </mxCell>
        <mxCell id="d_EyPhG1koHHxLtSO-FC-20" value="plugin-box &amp;gt;" style="rounded=0;whiteSpace=wrap;html=1;" vertex="1" parent="1">
          <mxGeometry x="230" y="340" width="160" height="120" as="geometry" />
        </mxCell>
        <mxCell id="d_EyPhG1koHHxLtSO-FC-22" value="文件类型：上传" style="text;html=1;align=center;verticalAlign=middle;resizable=0;points=[];autosize=1;strokeColor=none;fillColor=none;" vertex="1" parent="1">
          <mxGeometry x="456" y="358" width="110" height="30" as="geometry" />
        </mxCell>
        <mxCell id="d_EyPhG1koHHxLtSO-FC-23" value="空白类型：打开shell" style="text;html=1;align=center;verticalAlign=middle;resizable=0;points=[];autosize=1;strokeColor=none;fillColor=none;" vertex="1" parent="1">
          <mxGeometry x="456" y="388" width="130" height="30" as="geometry" />
        </mxCell>
      </root>
    </mxGraphModel>
  </diagram>
</mxfile>
